<?xml version="1.0" encoding="UTF-8" standalone="no"?>
<svg
   xmlns:dc="http://purl.org/dc/elements/1.1/"
   xmlns:cc="http://creativecommons.org/ns#"
   xmlns:rdf="http://www.w3.org/1999/02/22-rdf-syntax-ns#"
   xmlns:svg="http://www.w3.org/2000/svg"
   xmlns="http://www.w3.org/2000/svg"
   xmlns:sodipodi="http://sodipodi.sourceforge.net/DTD/sodipodi-0.dtd"
   xmlns:inkscape="http://www.inkscape.org/namespaces/inkscape"
   width="72"
   height="72"
   viewBox="0 0 72 72"
   fill="none"
   version="1.1"
   id="svg11"
   sodipodi:docname="discord_logo.svg"
   inkscape:export-filename="D:\GitHub\chummer5a\Chummer\Resources\path3.png"
   inkscape:export-xdpi="14.666667"
   inkscape:export-ydpi="14.666667"
   inkscape:version="1.0.2-2 (e86c870879, 2021-01-15)">
  <metadata
     id="metadata15">
    <rdf:RDF>
      <cc:Work
         rdf:about="">
        <dc:format>image/svg+xml</dc:format>
        <dc:type
           rdf:resource="http://purl.org/dc/dcmitype/StillImage" />
        <dc:title></dc:title>
      </cc:Work>
    </rdf:RDF>
  </metadata>
  <sodipodi:namedview
     pagecolor="#ffffff"
     bordercolor="#666666"
     borderopacity="1"
     objecttolerance="10"
     gridtolerance="10"
     guidetolerance="10"
     inkscape:pageopacity="0"
     inkscape:pageshadow="2"
     inkscape:window-width="1702"
     inkscape:window-height="995"
     id="namedview13"
     showgrid="true"
     inkscape:zoom="11.034849"
     inkscape:cx="43.096247"
     inkscape:cy="36.928277"
     inkscape:window-x="76"
     inkscape:window-y="47"
     inkscape:window-maximized="0"
     inkscape:current-layer="svg11" />
  <path
     d="M 60.276613,13.732523 C 55.811564,11.684248 51.023475,10.17517 46.01723,9.3108578 c -0.09117,-0.016681 -0.182242,0.025006 -0.229208,0.1083807 -0.61579,1.0949755 -1.297886,2.5234605 -1.77554,3.6462435 -5.384541,-0.805933 -10.741455,-0.805933 -16.015586,0 -0.477752,-1.14774 -1.184614,-2.551268 -1.803167,-3.6462435 -0.04697,-0.080594 -0.138037,-0.1222799 -0.229208,-0.1083807 -5.003482,0.8615502 -9.791571,2.3706292 -14.259382,4.4216652 -0.03868,0.01667 -0.07184,0.04449 -0.09384,0.08059 C 2.5293075,27.378253 0.0413689,40.609967 1.2618684,53.677633 c 0.00553,0.06392 0.041419,0.125083 0.091124,0.163949 5.9920421,4.399392 11.7963576,7.070219 17.4928886,8.84051 0.09117,0.02782 0.187766,-0.0055 0.245783,-0.08059 1.347516,-1.839738 2.548708,-3.779601 3.57861,-5.819591 0.06078,-0.11946 0.0027,-0.261213 -0.121461,-0.308464 -1.90529,-0.722578 -3.719509,-1.603581 -5.464659,-2.604044 -0.138038,-0.08059 -0.149088,-0.277983 -0.02211,-0.372485 0.367245,-0.275122 0.734587,-0.561391 1.085256,-0.850423 0.06344,-0.05277 0.15185,-0.06392 0.226444,-0.03058 11.464893,5.233242 23.877003,5.233242 35.20662,0 0.0746,-0.03611 0.163001,-0.02496 0.229207,0.02782 0.350767,0.289031 0.718011,0.578063 1.088018,0.853185 0.126987,0.0945 0.118698,0.291892 -0.01934,0.372485 -1.745151,1.019896 -3.559371,1.881466 -5.467423,2.601282 -0.124223,0.04725 -0.179478,0.191766 -0.118698,0.311226 1.052004,2.037129 2.253195,3.976992 3.575847,5.816829 0.05526,0.07783 0.154614,0.111173 0.245784,0.08335 5.724157,-1.770292 11.528434,-4.441118 17.520478,-8.84051 0.05249,-0.03886 0.08564,-0.09727 0.09117,-0.161186 1.46069,-15.107656 -2.446586,-28.23086 -10.357732,-39.864518 -0.01934,-0.03887 -0.05239,-0.06668 -0.09107,-0.08335 z M 24.382371,45.72079 c -3.451722,0 -6.295844,-3.168197 -6.295844,-7.059071 0,-3.890874 2.788967,-7.059071 6.295844,-7.059071 3.534407,0 6.350999,3.196015 6.295745,7.059071 0,3.890874 -2.788966,7.059071 -6.295745,7.059071 z m 23.277789,0 c -3.451624,0 -6.295745,-3.168197 -6.295745,-7.059071 0,-3.890874 2.788867,-7.059071 6.295745,-7.059071 3.534505,0 6.350999,3.196015 6.295843,7.059071 0,3.890874 -2.761338,7.059071 -6.295843,7.059071 z"
     fill="#ffffff"
     id="path2"
     style="fill:#ffffff;fill-opacity:1;stroke:#000000;stroke-width:2;stroke-linecap:square;stroke-linejoin:miter;stroke-miterlimit:4;stroke-dasharray:none;stroke-opacity:1" />
  <defs
     id="defs9">
    <clipPath
       id="clip0">
      <rect
         width="71"
         height="55"
         fill="#ffffff"
         id="rect6"
         x="0"
         y="0" />
    </clipPath>
  </defs>
</svg>
