<?xml version="1.0" encoding="UTF-8" standalone="no"?>
<!-- Created with Inkscape (http://www.inkscape.org/) -->

<svg
   xmlns:dc="http://purl.org/dc/elements/1.1/"
   xmlns:cc="http://creativecommons.org/ns#"
   xmlns:rdf="http://www.w3.org/1999/02/22-rdf-syntax-ns#"
   xmlns:svg="http://www.w3.org/2000/svg"
   xmlns="http://www.w3.org/2000/svg"
   xmlns:xlink="http://www.w3.org/1999/xlink"
   xmlns:sodipodi="http://sodipodi.sourceforge.net/DTD/sodipodi-0.dtd"
   xmlns:inkscape="http://www.inkscape.org/namespaces/inkscape"
   width="48"
   height="48"
   viewBox="0 0 12.7 12.7"
   version="1.1"
   id="svg8"
   inkscape:version="0.92.3 (2405546, 2018-03-11)"
   sodipodi:docname="troll.svg">
  <title
     id="title4646">Chummer Troll</title>
  <defs
     id="defs2">
    <linearGradient
       inkscape:collect="always"
       id="linearGradient4642">
      <stop
         style="stop-color:#00ff00;stop-opacity:1;"
         offset="0"
         id="stop4638" />
      <stop
         style="stop-color:#008000;stop-opacity:1"
         offset="1"
         id="stop4640" />
    </linearGradient>
    <radialGradient
       inkscape:collect="always"
       xlink:href="#linearGradient4642"
       id="radialGradient4644"
       cx="8.9104624"
       cy="296.27652"
       fx="8.9104624"
       fy="296.27652"
       r="24.763412"
       gradientTransform="matrix(1.7003901,-6.1436129e-4,6.3163363e-4,1.6551192,-6.4279376,-194.09097)"
       gradientUnits="userSpaceOnUse" />
  </defs>
  <sodipodi:namedview
     id="base"
     pagecolor="#ffffff"
     bordercolor="#666666"
     borderopacity="1.0"
     inkscape:pageopacity="0.0"
     inkscape:pageshadow="2"
     inkscape:zoom="15.839192"
     inkscape:cx="10.971046"
     inkscape:cy="25.916937"
     inkscape:document-units="mm"
     inkscape:current-layer="layer1"
     showgrid="true"
     units="px"
     inkscape:window-width="1920"
     inkscape:window-height="1013"
     inkscape:window-x="-9"
     inkscape:window-y="-9"
     inkscape:window-maximized="1">
    <inkscape:grid
       type="xygrid"
       id="grid4584" />
  </sodipodi:namedview>
  <metadata
     id="metadata5">
    <rdf:RDF>
      <cc:Work
         rdf:about="">
        <dc:format>image/svg+xml</dc:format>
        <dc:type
           rdf:resource="http://purl.org/dc/dcmitype/StillImage" />
        <dc:title>Chummer Troll</dc:title>
      </cc:Work>
    </rdf:RDF>
  </metadata>
  <g
     inkscape:label="Layer 1"
     inkscape:groupmode="layer"
     id="layer1"
     transform="translate(0,-284.3)">
    <g
       id="g4562"
       transform="matrix(0.18850579,0,0,0.19373364,4.6703261,233.25422)"
       style="fill:url(#radialGradient4644);fill-opacity:1;stroke:#000000;stroke-width:1.38451493;stroke-linecap:square;stroke-linejoin:round;stroke-miterlimit:4;stroke-dasharray:none;paint-order:markers stroke fill">
      <path
         style="fill:url(#radialGradient4644);fill-opacity:1;stroke:#000000;stroke-width:1.38451493;stroke-linecap:square;stroke-linejoin:round;stroke-miterlimit:4;stroke-dasharray:none;paint-order:markers stroke fill"
         d="m -5.7879086,327.85021 c 0.2598737,-0.28716 0.3461342,-0.57026 0.2010748,-0.65991 -0.1595604,-0.0986 -0.1639982,-0.55777 -0.011933,-1.23456 0.2046172,-0.91069 0.1593334,-1.18279 -0.2924159,-1.7571 l -0.5345266,-0.67954 0.661515,-0.61307 c 1.3250577,-1.22802 0.3791749,-4.26249 -1.256275,-4.03024 -0.4887268,0.0694 -0.5814979,0.2272 -0.5164072,0.87836 l 0.079345,0.79375 -0.6085113,-0.85533 c -0.4653304,-0.65406 -0.8063235,-0.85639 -1.4492036,-0.85989 -0.6052796,-0.003 -0.9934426,-0.20832 -1.3861836,-0.73218 -0.300019,-0.40018 -0.649743,-0.85416 -0.777163,-1.00885 -0.571296,-0.69355 -0.864883,-1.53874 -0.804521,-2.31608 0.06705,-0.86347 -0.219103,-2.06163 -0.548692,-2.29746 -0.101688,-0.0728 -0.622296,-0.78685 -1.156906,-1.58685 l -0.972019,-1.45457 0.663939,-0.22131 c 0.947258,-0.31575 1.082501,-1.25261 0.45735,-3.16816 -0.443993,-1.36046 -0.522858,-2.21152 -0.464191,-5.00929 0.03887,-1.85371 0.188702,-3.52058 0.332958,-3.70417 0.144257,-0.18357 0.339984,-0.74268 0.434949,-1.24246 0.09497,-0.49977 0.340436,-1.09508 0.54549,-1.32291 1.176605,-1.3073 2.253968,-6.06261 2.261849,-9.98345 0.0063,-3.11112 0.489791,-4.29899 2.4156982,-5.93444 0.7840993,-0.66585 1.7828226,-1.43468 2.2193851,-1.70852 0.4365625,-0.27384 1.031875,-0.70732 1.3229167,-0.96327 0.2910417,-0.25596 0.9445474,-0.81892 1.4522352,-1.25101 l 0.9230686,-0.78564 -0.7685236,-0.80216 c -0.6098117,-0.63651 -0.7937669,-1.10657 -0.8907598,-2.27618 -0.1077708,-1.29957 -0.00669,-1.70781 0.8541745,-3.44964 0.5370259,-1.0866 1.2841047,-2.30117 1.660175,-2.69903 l 0.6837641,-0.7234 -0.1734206,0.90442 c -0.095382,0.49744 -0.2479805,1.70666 -0.3391088,2.68717 -0.145822,1.56898 -0.095802,1.88088 0.4171828,2.6013 0.89070235,1.25088 1.6822431,1.06536 3.8451669,-0.90122 0.9320763,-0.84747 2.8240536,-2.1297 4.088201,-2.77067 1.5454644,-0.78359 4.0453407,-0.68289 5.2035277,0.20961 6.603296,5.08856 6.54654,5.05187 7.188457,4.64696 0.236212,-0.149 0.663072,-0.72103 0.948573,-1.27118 0.454054,-0.87494 0.486024,-1.20413 0.255157,-2.62729 -0.145167,-0.89486 -0.355209,-1.86514 -0.466762,-2.15618 -0.137335,-0.35831 0.01741,-0.27288 0.479247,0.26458 0.37514,0.43656 0.686356,0.94258 0.691589,1.12448 0.0052,0.1819 0.111826,0.33073 0.236874,0.33073 0.318153,0 1.360141,3.27608 1.360141,4.27639 0,0.56189 -0.239758,1.05482 -0.750446,1.54286 -0.814692,0.77856 -1.23779,1.58908 -0.829514,1.58908 0.140536,0 0.716778,0.41672 1.280536,0.92604 0.563758,0.50932 1.115219,0.92604 1.225465,0.92604 0.110247,0 0.649598,0.38696 1.198558,0.8599 0.54896,0.47294 1.308711,1.0747 1.688335,1.33724 0.379622,0.26255 1.105763,1.09439 1.613644,1.84856 0.858419,1.27467 0.923422,1.51625 0.923422,3.4318 0,1.91713 0.04312,2.07699 0.619318,2.29606 0.484608,0.18425 0.708427,0.60007 1.028994,1.91169 0.392766,1.60702 0.387686,1.70711 -0.123079,2.42476 -0.584343,0.82102 -0.637532,0.61648 0.871813,3.35249 1.281575,2.32314 1.582922,3.90409 1.55439,8.15479 -0.01797,2.67762 -0.13901,4.06098 -0.412602,4.71577 -0.212939,0.50964 -0.310206,1.1691 -0.216144,1.46546 0.09406,0.29636 -0.008,0.97223 -0.226824,1.50193 -0.218816,0.5297 -0.551186,1.67747 -0.738601,2.5506 -0.469865,2.189 -0.964493,3.30729 -1.462846,3.30729 -0.231767,0 -0.882653,0.36532 -1.446414,0.81183 -0.705903,0.55908 -1.252469,0.7856 -1.755603,0.7276 -1.01967,-0.11755 -1.073671,-0.8616 -0.147143,-2.02743 1.14849,-1.44512 1.178711,-1.53222 0.983459,-2.83426 -0.153646,-1.02457 -0.262766,-1.19206 -0.732118,-1.1237 -0.322445,0.047 -0.768054,0.49248 -1.072732,1.07252 -0.374205,0.7124 -0.694558,0.99219 -1.13606,0.99219 -0.586004,0 -0.614892,-0.0887 -0.614892,-1.88754 0,-2.44536 0.423672,-3.82214 1.387335,-4.50833 0.700043,-0.49848 0.749718,-0.63794 0.581626,-1.63286 -0.158448,-0.93785 -0.697257,-2.11162 -1.172671,-2.55461 -0.07809,-0.0728 -0.607866,-0.81867 -1.177287,-1.65759 -0.954304,-1.40595 -1.050734,-1.71648 -1.232432,-3.96875 -0.108418,-1.3439 -0.206467,-2.45495 -0.217887,-2.46901 -0.01143,-0.014 -0.421703,-0.43839 -0.911735,-0.94296 l -0.890969,-0.9174 -0.710552,0.76418 c -0.780206,0.83908 -1.048353,1.42661 -1.313249,2.87741 -0.156389,0.85652 -0.108063,0.97888 0.441042,1.1167 0.339172,0.0851 0.788496,0.50111 0.998498,0.92441 0.210003,0.42329 0.948079,1.88531 1.640171,3.24893 l 1.25835,2.47929 -0.795329,0.72388 c -0.836592,0.76143 -0.963713,1.23329 -0.536567,1.99169 0.142316,0.25269 0.551696,2.01267 0.909727,3.91108 0.797587,4.22906 0.710761,7.03031 -0.258633,8.34425 -0.541478,0.73393 -0.586205,1.01647 -0.450212,2.84387 0.08305,1.11594 0.326176,2.29874 0.540284,2.62845 0.271447,0.41799 0.336659,0.92862 0.215424,1.68678 -0.336584,2.10489 -0.285633,2.07938 -4.152471,2.07938 -1.896216,0 -3.673142,-0.12067 -3.948721,-0.26816 -1.036461,-0.5547 -1.585114,-3.00669 -1.718435,-7.67987 -0.02829,-0.99155 -0.244073,-2.14065 -0.505399,-2.69135 -0.348874,-0.7352 -0.389078,-1.08612 -0.171096,-1.49343 0.156716,-0.29282 0.284938,-0.81561 0.284938,-1.16174 0,-0.8594 -1.122558,-3.06956 -2.049754,-4.03566 -0.4189794,-0.43656 -0.8887551,-1.02122 -1.0439451,-1.29924 -0.2574412,-0.46121 -0.3487063,-0.40355 -1.0416281,0.65809 -0.4177054,0.63997 -0.9975892,1.44262 -1.2886309,1.78367 -0.3963681,0.46447 -0.5357082,1.02971 -0.5552329,2.25233 -0.014338,0.89772 -0.1086975,1.92989 -0.209691,2.29369 -0.3923618,1.41338 -0.5813563,4.73783 -0.3986007,7.01146 0.1052733,1.30969 0.2017731,2.88726 0.2144443,3.50573 l 0.023039,1.12448 h -5.99413236 c -5.87301244,0 -5.98493574,-0.0102 -5.53901484,-0.5029 z m 1.7900597,-19.35965 c 1.0381076,-0.3392 1.1263392,-0.51215 1.423293,-2.78995 0.1377675,-1.05675 0.07556,-1.50753 -0.2837048,-2.05584 -0.4371953,-0.66724 -0.4371612,-0.76476 6.88e-4,-1.95375 0.7028833,-1.90873 1.6434329,-3.23583 2.2933123,-3.23583 0.52398772,0 0.55279106,-0.10332 0.4241808,-1.52166 -0.0758886,-0.83692 -0.33303105,-1.93824 -0.57142752,-2.4474 -0.72452498,-1.5474 -1.67299938,-2.97694 -1.81690888,-2.73844 -1.3595705,2.25317 -1.5201694,2.742 -1.356985,4.13045 0.1719739,1.46323 -0.2894319,4.42913 -0.6890398,4.42913 -0.1253974,0 -0.2969117,0.21714 -0.3811426,0.48253 -0.084231,0.26539 -0.360145,0.71187 -0.6131423,0.99218 -1.2462952,1.38087 -1.9152031,2.68963 -1.9152031,3.74721 0,0.83021 0.1173948,1.12968 0.4890849,1.24765 0.2689966,0.0854 0.715481,0.62769 0.9921875,1.20514 0.2767063,0.57746 0.6221651,0.99961 0.7676859,0.93813 0.1455209,-0.0615 0.7022257,-0.25478 1.2371216,-0.42955 z"
         id="path4566"
         inkscape:connector-curvature="0" />
    </g>
  </g>
</svg>
