<?xml version="1.0" encoding="UTF-8" standalone="no"?>
<svg
   xmlns:dc="http://purl.org/dc/elements/1.1/"
   xmlns:cc="http://creativecommons.org/ns#"
   xmlns:rdf="http://www.w3.org/1999/02/22-rdf-syntax-ns#"
   xmlns:svg="http://www.w3.org/2000/svg"
   xmlns="http://www.w3.org/2000/svg"
   xmlns:xlink="http://www.w3.org/1999/xlink"
   xmlns:sodipodi="http://sodipodi.sourceforge.net/DTD/sodipodi-0.dtd"
   xmlns:inkscape="http://www.inkscape.org/namespaces/inkscape"
   width="48"
   height="48"
   viewBox="0 0 12.7 12.7"
   version="1.1"
   id="svg8"
   sodipodi:docname="troll.svg"
   inkscape:export-filename="D:\GitHub\chummer5a\Chummer\Resources\troll_400.png"
   inkscape:export-xdpi="800"
   inkscape:export-ydpi="800"
   inkscape:version="1.0.1 (3bc2e813f5, 2020-09-07)">
  <defs
     id="defs2">
    <linearGradient
       inkscape:collect="always"
       id="linearGradient4642">
      <stop
         style="stop-color:#00ff00;stop-opacity:1;"
         offset="0"
         id="stop4638" />
      <stop
         style="stop-color:#008000;stop-opacity:1"
         offset="1"
         id="stop4640" />
    </linearGradient>
    <radialGradient
       inkscape:collect="always"
       xlink:href="#linearGradient4642"
       id="radialGradient4644-1"
       cx="8.9104624"
       cy="296.27652"
       fx="8.9104624"
       fy="296.27652"
       r="24.763412"
       gradientTransform="matrix(1.70039,-6.1436129e-4,6.3163363e-4,1.6551192,-6.9029108,-193.79484)"
       gradientUnits="userSpaceOnUse" />
    <radialGradient
       inkscape:collect="always"
       xlink:href="#linearGradient4642"
       id="radialGradient4705"
       gradientUnits="userSpaceOnUse"
       gradientTransform="matrix(0.32053338,-1.1902245e-4,1.190666e-4,0.32065227,3.4586221,195.64931)"
       cx="8.9104624"
       cy="296.27652"
       fx="8.9104624"
       fy="296.27652"
       r="24.763412" />
    <radialGradient
       inkscape:collect="always"
       xlink:href="#linearGradient4642"
       id="radialGradient4705-8"
       gradientUnits="userSpaceOnUse"
       gradientTransform="matrix(0.32053336,-1.1902245e-4,1.190666e-4,0.32065227,3.4586327,195.64931)"
       cx="8.9104624"
       cy="296.27652"
       fx="8.9104624"
       fy="296.27652"
       r="24.763412" />
    <radialGradient
       inkscape:collect="always"
       xlink:href="#linearGradient4642"
       id="radialGradient4705-87"
       gradientUnits="userSpaceOnUse"
       gradientTransform="matrix(0.32053339,-1.1902245e-4,1.190666e-4,0.32065227,3.4586157,195.64931)"
       cx="8.9104624"
       cy="296.27652"
       fx="8.9104624"
       fy="296.27652"
       r="24.763412" />
  </defs>
  <sodipodi:namedview
     id="base"
     pagecolor="#ffffff"
     bordercolor="#666666"
     borderopacity="1.0"
     inkscape:pageopacity="0.0"
     inkscape:pageshadow="2"
     inkscape:zoom="11.313709"
     inkscape:cx="11.002305"
     inkscape:cy="19.200824"
     inkscape:document-units="mm"
     inkscape:current-layer="layer1"
     showgrid="true"
     units="px"
     inkscape:window-width="1920"
     inkscape:window-height="1013"
     inkscape:window-x="-9"
     inkscape:window-y="-9"
     inkscape:window-maximized="1"
     inkscape:document-rotation="0">
    <inkscape:grid
       type="xygrid"
       id="grid4584"
       spacingx="0.066145833"
       spacingy="0.066145833"
       empspacing="8" />
  </sodipodi:namedview>
  <metadata
     id="metadata5">
    <rdf:RDF>
      <cc:Work
         rdf:about="">
        <dc:format>image/svg+xml</dc:format>
        <dc:type
           rdf:resource="http://purl.org/dc/dcmitype/StillImage" />
        <dc:title></dc:title>
      </cc:Work>
    </rdf:RDF>
  </metadata>
  <g
     inkscape:label="Layer 1"
     inkscape:groupmode="layer"
     id="layer1"
     transform="translate(0,-284.3)">
    <path
       style="display:inline;fill:url(#radialGradient4705);fill-opacity:1;stroke:#000000;stroke-width:0.264582;stroke-linecap:square;stroke-linejoin:round;stroke-miterlimit:4;stroke-dasharray:none;paint-order:markers stroke fill"
       d="m 3.5792713,296.76687 c 0.048988,-0.0556 0.065248,-0.11048 0.037904,-0.12784 -0.030078,-0.0191 -0.030915,-0.10806 -0.00225,-0.23918 0.038572,-0.17643 0.030035,-0.22915 -0.055122,-0.34041 l -0.1007613,-0.13165 0.1246994,-0.11877 c 0.249781,-0.23791 0.071477,-0.82579 -0.2368151,-0.78079 -0.092128,0.0134 -0.1096157,0.044 -0.097346,0.17016 l 0.014957,0.15378 -0.1147079,-0.16571 c -0.087718,-0.12671 -0.1519966,-0.16591 -0.2731832,-0.16659 -0.1140986,-5.8e-4 -0.1872696,-0.0403 -0.2613037,-0.14184 -0.056555,-0.0775 -0.1224804,-0.16548 -0.1464998,-0.19545 -0.1076926,-0.13437 -0.1630354,-0.29811 -0.1516568,-0.4487 0.012639,-0.16729 -0.041302,-0.39941 -0.1034317,-0.4451 -0.019169,-0.0141 -0.1173063,-0.15244 -0.2180834,-0.30743 l -0.1832312,-0.2818 0.1251563,-0.0429 c 0.1785636,-0.0612 0.2040577,-0.24267 0.086213,-0.61378 -0.083695,-0.26357 -0.098562,-0.42845 -0.087503,-0.97047 0.00733,-0.35912 0.035572,-0.68205 0.062765,-0.71762 0.027193,-0.0356 0.064089,-0.14388 0.081991,-0.24071 0.017902,-0.0968 0.064174,-0.21215 0.102828,-0.25629 0.2217968,-0.25327 0.424886,-1.17453 0.4263716,-1.93413 0.00119,-0.60273 0.092329,-0.83286 0.4553732,-1.1497 0.1478072,-0.129 0.3360723,-0.27794 0.4183669,-0.331 0.082295,-0.053 0.1945144,-0.13703 0.2493775,-0.18661 0.054863,-0.0496 0.1780526,-0.15866 0.2737547,-0.24237 l 0.1740038,-0.1522 -0.1448712,-0.15541 c -0.114953,-0.12331 -0.1496296,-0.21438 -0.1679133,-0.44097 -0.020316,-0.25177 -0.00126,-0.33086 0.1610168,-0.66831 0.1012325,-0.21051 0.2420612,-0.44582 0.3129526,-0.52289 l 0.1288935,-0.14015 -0.032691,0.17521 c -0.01798,0.0964 -0.046746,0.33064 -0.063924,0.5206 -0.027488,0.30396 -0.018059,0.36439 0.078641,0.50396 0.1679025,0.24234 0.3171126,0.2064 0.7248362,-0.1746 0.1757018,-0.16418 0.5323505,-0.41259 0.7706496,-0.53677 0.291329,-0.15181 0.7625701,-0.1323 0.980895,0.0406 1.2447596,0.98582 1.2340607,0.97872 1.3550658,0.90027 0.044527,-0.0289 0.1249929,-0.13969 0.1788115,-0.24627 0.085592,-0.1695 0.091618,-0.23328 0.048099,-0.50899 -0.027365,-0.17337 -0.066959,-0.36134 -0.087987,-0.41773 -0.025888,-0.0694 0.00328,-0.0529 0.090341,0.0513 0.070716,0.0846 0.129382,0.18261 0.1303685,0.21785 9.802e-4,0.0352 0.02108,0.0641 0.044652,0.0641 0.059974,0 0.2563945,0.63469 0.2563945,0.82848 0,0.10886 -0.045196,0.20436 -0.1414635,0.29891 -0.1535741,0.15083 -0.2333305,0.30786 -0.1563681,0.30786 0.026492,0 0.1351168,0.0807 0.2413884,0.1794 0.1062717,0.0987 0.2102252,0.17941 0.2310073,0.17941 0.020782,0 0.1224531,0.075 0.2259351,0.16659 0.1034821,0.0916 0.2466996,0.2082 0.3182609,0.25907 0.071561,0.0509 0.2084427,0.21202 0.3041812,0.35812 0.1618166,0.24695 0.1740696,0.29375 0.1740696,0.66486 0,0.37141 0.0081,0.40238 0.116745,0.44482 0.09135,0.0357 0.133543,0.11626 0.193971,0.37036 0.07404,0.31134 0.07308,0.33073 -0.0232,0.46976 -0.110152,0.15906 -0.120178,0.11943 0.164342,0.64949 0.241584,0.45007 0.29839,0.75635 0.293012,1.57986 -0.0034,0.51874 -0.02621,0.78675 -0.07778,0.9136 -0.04014,0.0987 -0.05848,0.22649 -0.04075,0.28391 0.01773,0.0574 -0.0015,0.18835 -0.04276,0.29097 -0.04125,0.10262 -0.103902,0.32499 -0.139231,0.49414 -0.08857,0.42408 -0.181812,0.64073 -0.275755,0.64073 -0.04369,0 -0.166385,0.0708 -0.272657,0.15728 -0.1330662,0.10832 -0.2360971,0.1522 -0.3309408,0.14096 -0.1922137,-0.0228 -0.2023932,-0.16692 -0.027737,-0.39278 0.2164971,-0.27997 0.2221939,-0.29684 0.1853878,-0.54909 -0.028963,-0.19849 -0.049533,-0.23094 -0.1380085,-0.2177 -0.060783,0.009 -0.1447827,0.0954 -0.2022162,0.20779 -0.07054,0.13801 -0.1309282,0.19222 -0.2141539,0.19222 -0.1104652,0 -0.1159107,-0.0172 -0.1159107,-0.36568 0,-0.47375 0.079865,-0.74048 0.2615207,-0.87342 0.1319621,-0.0966 0.1413262,-0.12359 0.1096398,-0.31634 -0.029868,-0.18169 -0.1314369,-0.40909 -0.2210552,-0.49491 -0.014721,-0.0141 -0.1145863,-0.15861 -0.2219254,-0.32113 -0.1798919,-0.27238 -0.1980695,-0.33254 -0.2323206,-0.76888 -0.020437,-0.26036 -0.03892,-0.47561 -0.041073,-0.47833 -0.00215,-0.003 -0.079493,-0.0849 -0.1718673,-0.18269 l -0.1679528,-0.17773 -0.1339432,0.14805 c -0.1470733,0.16256 -0.1976206,0.27638 -0.247555,0.55745 -0.02948,0.16594 -0.020371,0.18964 0.083139,0.21634 0.063936,0.0165 0.1486361,0.0971 0.1882229,0.17909 0.039587,0.082 0.1787182,0.36525 0.3091815,0.62943 l 0.2372063,0.48032 -0.1499239,0.14024 c -0.1577025,0.14751 -0.1816655,0.23893 -0.1011462,0.38586 0.026827,0.0489 0.1039979,0.38992 0.1714888,0.75771 0.1503498,0.81931 0.1339827,1.362 -0.048754,1.61656 -0.1020718,0.14218 -0.1105031,0.19692 -0.084868,0.55095 0.015655,0.2162 0.061486,0.44534 0.1018467,0.50922 0.051169,0.081 0.063462,0.1799 0.040609,0.32679 -0.063448,0.40778 -0.053843,0.40284 -0.7827648,0.40284 -0.3574475,0 -0.6924085,-0.0234 -0.7443566,-0.052 -0.1953789,-0.10746 -0.2988031,-0.5825 -0.3239349,-1.48785 -0.00533,-0.1921 -0.046009,-0.41472 -0.095271,-0.5214 -0.065765,-0.14244 -0.073343,-0.21042 -0.032253,-0.28933 0.029542,-0.0567 0.053712,-0.15801 0.053712,-0.22507 0,-0.16649 -0.2116087,-0.59468 -0.3863906,-0.78184 -0.07898,-0.0846 -0.1675355,-0.19785 -0.1967897,-0.25171 -0.048529,-0.0894 -0.065733,-0.0782 -0.1963529,0.12749 -0.07874,0.12399 -0.1880514,0.27949 -0.2429144,0.34556 -0.074718,0.09 -0.1009841,0.19949 -0.1046646,0.43635 -0.0027,0.17392 -0.02049,0.37389 -0.039528,0.44437 -0.073963,0.27382 -0.109589,0.91788 -0.075139,1.35835 0.019845,0.25374 0.038035,0.55936 0.040424,0.67918 l 0.00434,0.21785 H 4.6234077 c -1.1070969,0 -1.1281951,-0.002 -1.0441364,-0.0974 z m 0.3374366,-3.75061 c 0.1956893,-0.0657 0.2123215,-0.0992 0.268299,-0.54051 0.02597,-0.20473 0.014244,-0.29206 -0.05348,-0.39829 -0.082414,-0.12926 -0.082407,-0.14815 1.297e-4,-0.3785 0.1324976,-0.36979 0.3097966,-0.62689 0.4323026,-0.62689 0.098775,0 0.1042044,-0.02 0.079961,-0.2948 -0.014305,-0.16214 -0.062778,-0.3755 -0.1077174,-0.47414 -0.1365772,-0.29979 -0.3153701,-0.57674 -0.3424979,-0.53053 -0.2562869,0.43652 -0.2865607,0.53122 -0.2557995,0.80021 0.032418,0.28347 -0.05456,0.85807 -0.129888,0.85807 -0.023638,0 -0.05597,0.0421 -0.071848,0.0935 -0.015878,0.0514 -0.067889,0.13791 -0.1155808,0.19222 -0.2349339,0.26752 -0.3610269,0.52107 -0.3610269,0.72596 0,0.16084 0.02213,0.21886 0.092195,0.24171 0.050707,0.0165 0.1348723,0.12161 0.1870331,0.23348 0.052161,0.11187 0.1172817,0.19366 0.1447132,0.18175 0.027432,-0.0119 0.1323737,-0.0494 0.2332046,-0.0832 z"
       id="path4566"
       inkscape:connector-curvature="0" />
    <path
       sodipodi:nodetypes="cccccsccsccccccscccccccccc"
       style="display:inline;fill:url(#radialGradient4705-8);fill-opacity:1;stroke:#000000;stroke-width:0.264582;stroke-linecap:butt;stroke-linejoin:round;stroke-miterlimit:4;stroke-dasharray:none;paint-order:markers stroke fill"
       d="m 6.170822,293.38264 c -0.078741,0.12399 -0.1880515,0.27949 -0.2429142,0.34556 -0.074718,0.09 -0.1009845,0.19949 -0.1046641,0.43635 -0.00271,0.17392 -0.020491,0.37389 -0.03953,0.44437 -0.073962,0.27382 -0.1095878,0.91788 -0.075138,1.35835 0.019844,0.25374 0.038037,0.55936 0.040425,0.67918 l 0.00434,0.21785 H 4.62341 c -1.1070983,0 -1.1281958,-0.002 -1.0441373,-0.0974 h 9.4e-6 c 0.048987,-0.0556 0.065248,-0.11048 0.037903,-0.12784 -0.030078,-0.0191 -0.030915,-0.10806 -0.00224,-0.23918 0.038572,-0.17643 0.030035,-0.22915 -0.055123,-0.34041 l -0.100762,-0.13165 0.1247003,-0.11877 c 0.2172869,-0.20696 0.1106228,-0.67876 -0.123754,-0.76839 -0.035051,-0.0134 -0.087917,-0.0284 -0.087917,-0.1607 l 0.1071463,-0.38086 c 0.157437,-0.016 0.1322915,0 0.1322915,0 l 0.1574372,-0.67748 c -0.1322917,-0.13229 -0.1322917,-0.13229 -0.1322917,-0.26458 0.1322917,-0.26458 0.1792174,-0.50689 0.2800473,-0.54074 0.1956897,-0.0657 0.2123216,-0.0992 0.2683003,-0.54051 0.025969,-0.20473 0.014251,-0.29206 -0.053481,-0.39829 -0.082413,-0.12926 -0.082407,-0.14816 1.301e-4,-0.3785 0.1324969,-0.36979 0.309796,-0.62689 0.4323022,-0.62689"
       id="path4566-0"
       inkscape:connector-curvature="0" />
    <path
       style="display:inline;fill:url(#radialGradient4705-87);fill-opacity:1;stroke:#000000;stroke-width:0.264582;stroke-linecap:square;stroke-linejoin:round;stroke-miterlimit:4;stroke-dasharray:none;paint-order:markers stroke fill"
       d="m 4.1811381,286.36182 c -0.048229,-0.0518 -0.096576,-0.10365 -0.1448712,-0.15546 -0.114953,-0.12331 -0.1496296,-0.21438 -0.1679133,-0.44097 -0.020316,-0.25177 -0.00126,-0.33086 0.1610168,-0.66831 0.1012325,-0.21051 0.2420612,-0.44582 0.3129527,-0.52289 l 0.1288933,-0.14015 -0.032691,0.17521 c -0.017981,0.0964 -0.046746,0.33064 -0.063924,0.5206 -0.027488,0.30396 -0.018058,0.36439 0.078641,0.50396 0.1679024,0.24234 0.3171126,0.2064 0.7248363,-0.1746 0.1757016,-0.16418 0.5323504,-0.41259 0.7706495,-0.53677 0.291329,-0.15181 0.7625702,-0.1323 0.9808951,0.0406 1.2447596,0.98582 1.2340606,0.97872 1.3550657,0.90027 0.044527,-0.0289 0.1249928,-0.13969 0.1788115,-0.24627 0.085592,-0.1695 0.091618,-0.23328 0.048099,-0.50899 -0.027365,-0.17337 -0.066959,-0.36134 -0.087987,-0.41773 -0.025887,-0.0694 0.00328,-0.0529 0.090341,0.0513 0.070716,0.0846 0.129382,0.18261 0.1303684,0.21785 9.79e-4,0.0352 0.021079,0.0641 0.044652,0.0641 0.059974,0 0.2563944,0.63469 0.2563944,0.82848 0,0.10886 -0.045196,0.20436 -0.1777911,0.39868 -0.1649429,0.25414 -0.2486605,0.34802 -0.3119252,0.4305 0.024341,0.15263 0.00301,0.36754 -0.011014,0.51049 -0.077189,0.3085 -0.206538,0.82636 -0.286461,1.14643 -0.044799,0.17886 -0.1653139,0.32909 -0.3299971,0.41159 -0.1484884,0.0743 -0.3285253,0.16432 -0.44862,0.22432 -0.087494,0.044 -0.1840335,0.0667 -0.2820435,0.0667 H 5.7127467 c -0.098011,0 -0.1945489,-0.0227 -0.2820439,-0.0667 -0.1200946,-0.06 -0.3001315,-0.15002 -0.4486198,-0.22432 -0.1646832,-0.0825 -0.2851984,-0.23273 -0.3299974,-0.41159 -0.079923,-0.32007 -0.2092715,-0.83793 -0.2864605,-1.14643 -0.041855,-0.16771 -0.041855,-0.34278 0,-0.51049 0.00992,-0.0396 -3e-7,-0.13229 -3e-7,-0.13229 -0.1554011,-0.15734 -0.1844867,-0.18712 -0.1844867,-0.18712 z"
       id="path4566-8"
       inkscape:connector-curvature="0"
       sodipodi:nodetypes="ccssccccsccccsscccssccccccssccccccc"
       inkscape:export-filename="D:\GitHub\chummer5a\Chummer\Resources\path4566-8.png"
       inkscape:export-xdpi="151.21304"
       inkscape:export-ydpi="151.21304" />
    <g
       id="g10790"
       style="display:inline"
       transform="translate(-6.1e-7,-2.091e-5)"
       inkscape:export-filename="D:\GitHub\chummer5a\Chummer\Resources\path4566-8.png"
       inkscape:export-xdpi="151.21304"
       inkscape:export-ydpi="151.21304">
      <path
         d="m 5.4239586,286.68117 c 0.05784,-0.0374 0.1317349,-0.0419 0.1938301,-0.0116 0.055131,0.0267 0.1234167,0.0599 0.1795153,0.0871 0.065577,0.0317 0.1069739,0.0966 0.1069739,0.16775 v 0.0304 c 0,0.0563 -0.025921,0.10958 -0.0708,0.14524 -0.044879,0.0354 -0.1036855,0.0499 -0.1605578,0.0388 -0.083761,-0.0163 -0.1814496,-0.0352 -0.2779776,-0.054 -0.076604,-0.0148 -0.136571,-0.073 -0.151853,-0.14749 -0.015088,-0.0745 0.01741,-0.15049 0.0826,-0.19252 0.035787,-0.0233 0.069446,-0.045 0.098269,-0.0636 z"
         id="path1953"
         style="fill:#ff0000;stroke:#800000;stroke-width:0.264583;stroke-linecap:butt;stroke-linejoin:round;stroke-miterlimit:4;stroke-dasharray:none;stroke-opacity:1;paint-order:markers stroke fill" />
      <path
         d="m 7.4083335,286.68117 c -0.05784,-0.0374 -0.1317348,-0.0419 -0.1938301,-0.0116 -0.055131,0.0267 -0.1234167,0.0599 -0.1795153,0.0871 -0.065577,0.0317 -0.1069739,0.0966 -0.1069739,0.16775 v 0.0304 c 0,0.0563 0.025921,0.10958 0.0708,0.14524 0.044879,0.0354 0.1036855,0.0499 0.1605578,0.0388 0.083761,-0.0163 0.1814496,-0.0352 0.2779776,-0.054 0.076604,-0.0148 0.136571,-0.073 0.151853,-0.14749 0.015088,-0.0745 -0.01741,-0.15049 -0.0826,-0.19252 -0.035787,-0.0233 -0.069446,-0.045 -0.098269,-0.0636 z"
         id="path1953-5"
         style="fill:#ff0000;stroke:#800000;stroke-width:0.264583;stroke-linejoin:round;stroke-miterlimit:4;stroke-dasharray:none;stroke-opacity:1;paint-order:markers stroke fill" />
    </g>
  </g>
</svg>
